<svg width="56" height="56" fill="none" xmlns="http://www.w3.org/2000/svg"><path d="M49.414 14.822h2.883a2.882 2.882 0 110 5.766h-2.883m0 14.825h2.883a2.882 2.882 0 110 5.766h-2.883m-37.063 2.8a3.79 3.79 0 01-3.789 3.788H4.61A3.79 3.79 0 01.82 43.98V12.022a3.79 3.79 0 013.79-3.789h3.953a3.79 3.79 0 013.789 3.789" stroke="#56AE47" stroke-miterlimit="10" stroke-linecap="round" stroke-linejoin="round"/><path d="M16.47 11.527h-4.118v32.945h4.118" stroke="#56AE47" stroke-miterlimit="10" stroke-linecap="round" stroke-linejoin="round"/><path d="M23.058 44.473a3.294 3.294 0 11-6.59 0V11.528a3.294 3.294 0 116.59 0" stroke="#56AE47" stroke-miterlimit="10" stroke-linecap="round" stroke-linejoin="round"/><path d="M23.055 32.675V11.527a3.294 3.294 0 116.588 0m-6.588 24.976v7.97a3.294 3.294 0 106.588 0m6.594 0a3.294 3.294 0 11-6.589 0V11.528a3.294 3.294 0 116.59 0" stroke="#56AE47" stroke-miterlimit="10" stroke-linecap="round" stroke-linejoin="round"/><path d="M42.823 44.473a3.294 3.294 0 11-6.589 0V11.528a3.294 3.294 0 116.59 0m.004 10.462v22.483a3.294 3.294 0 106.589 0V11.527a3.294 3.294 0 10-6.589 0v6.636M7.533 17.105a2.471 2.471 0 10-1.89-4.565 2.471 2.471 0 001.89 4.566zm-.953 9.248a2.47 2.47 0 100-4.942 2.47 2.47 0 000 4.942zM4.938 30.47h3.294m-3.294 4.119h3.294m-3.294 4.118h3.294m-3.294 4.118h3.294" stroke="#56AE47" stroke-miterlimit="10" stroke-linecap="round" stroke-linejoin="round"/></svg>