<svg width="56" height="56" fill="none" xmlns="http://www.w3.org/2000/svg"><path d="M31.304 29.078h10.553l2.446 4.374c.547.98.835 2.082.835 3.204v7.113c0 3.27-6.38 4.375-22.159 4.375S.82 47.039.82 43.769v-7.113a6.57 6.57 0 01.835-3.204l2.447-4.374h23.921m-12.868 14.57C5.055 43.285.82 42.058.82 39.394" stroke="#56AE47" stroke-miterlimit="10" stroke-linecap="round" stroke-linejoin="round"/><path d="M45.141 39.394c0 3.27-6.38 4.375-22.158 4.375-1.548 0-3.005-.011-4.374-.033m20.4-7.323c-3.573.563-8.82.793-16.028.793-7.208 0-12.455-.23-16.028-.793" stroke="#56AE47" stroke-miterlimit="10" stroke-linecap="round" stroke-linejoin="round"/><path d="M11.258 43.443c0-3.492-1.544-5.525-5.186-7.544l-4.416-2.447m33.047 9.991c0-3.492 1.544-5.525 5.186-7.544l4.416-2.447M6.453 18.925c6.062-2.561 26.984-2.561 33.046 0" stroke="#56AE47" stroke-miterlimit="10" stroke-linecap="round" stroke-linejoin="round"/><path d="M16.242 13.945c6.887-.474 15.275-.188 20.35.86a3.276 3.276 0 012.526 2.47l2.737 11.803m-37.753 0l2.736-11.802a3.276 3.276 0 012.526-2.471c1.15-.238 2.47-.436 3.904-.595m-2.01 33.609v2.406a1.64 1.64 0 01-1.64 1.64H6.335a1.64 1.64 0 01-1.64-1.64v-3.33m30.008.924v2.406c0 .906.735 1.64 1.64 1.64h3.282a1.64 1.64 0 001.64-1.64v-3.33m1.617-32.232s2.068-.013 2.913-.013c1.705 0 3.148-1.382 3.148-3.087 0-1.704-1.443-3.086-3.148-3.086H42.75v10.937" stroke="#56AE47" stroke-miterlimit="10" stroke-linecap="round" stroke-linejoin="round"/><path d="M43.911 23.79h9.628a1.64 1.64 0 001.64-1.642V5.742a1.64 1.64 0 00-1.64-1.64H37.133a1.64 1.64 0 00-1.64 1.64v8.856" stroke="#56AE47" stroke-miterlimit="10" stroke-linecap="round" stroke-linejoin="round"/></svg>