<svg width="56" height="56" viewBox="0 0 56 56" fill="none" xmlns="http://www.w3.org/2000/svg">
<g clip-path="url(#clip0_357_44106)">
<path d="M34.4689 21.6563H23.8594V54.9062H54.9219V21.6563H44.3126" stroke="#56AE47" stroke-miterlimit="10" stroke-linecap="round" stroke-linejoin="round"/>
<path d="M7.23437 21.6563H23.8594V54.9062H1.10938V21.6563H7.5625" stroke="#56AE47" stroke-miterlimit="10" stroke-linecap="round" stroke-linejoin="round"/>
<path d="M23.8594 33.0312H54.9219" stroke="#56AE47" stroke-miterlimit="10" stroke-linecap="round" stroke-linejoin="round"/>
<path d="M39.3906 33.0313V54.9062" stroke="#56AE47" stroke-miterlimit="10" stroke-linecap="round" stroke-linejoin="round"/>
<path d="M38.8438 27.3438H39.9375" stroke="#56AE47" stroke-miterlimit="10" stroke-linecap="round" stroke-linejoin="round"/>
<path d="M44.2656 43.4219V44.5156" stroke="#56AE47" stroke-miterlimit="10" stroke-linecap="round" stroke-linejoin="round"/>
<path d="M34.5156 43.4219V44.5156" stroke="#56AE47" stroke-miterlimit="10" stroke-linecap="round" stroke-linejoin="round"/>
<path d="M23.8594 33.0312H1.10938" stroke="#56AE47" stroke-miterlimit="10" stroke-linecap="round" stroke-linejoin="round"/>
<path d="M14.0582 37.1733L5.6875 45.5439" stroke="#56AE47" stroke-miterlimit="10" stroke-linecap="round" stroke-linejoin="round"/>
<path d="M19.4826 40.119L8.63281 50.9688" stroke="#56AE47" stroke-miterlimit="10" stroke-linecap="round" stroke-linejoin="round"/>
<path d="M16.8482 21.6562H8.11466L8.11225 21.6538C6.05841 19.5803 4.90625 16.7799 4.90625 13.8613V12.0313H20.0679V13.8499C20.0679 16.7752 18.9104 19.5815 16.8482 21.6562Z" stroke="#56AE47" stroke-miterlimit="10" stroke-linecap="round" stroke-linejoin="round"/>
<path d="M20.0625 13.8496H21.7647" stroke="#56AE47" stroke-miterlimit="10" stroke-linecap="round" stroke-linejoin="round"/>
<path d="M4.90533 13.8496H3.20312" stroke="#56AE47" stroke-miterlimit="10" stroke-linecap="round" stroke-linejoin="round"/>
<path d="M28 3.28125H54.9062" stroke="#56AE47" stroke-miterlimit="10" stroke-linecap="round" stroke-linejoin="round"/>
<path d="M44.4062 13.7812C44.4062 15.231 43.231 16.4062 41.7812 16.4062C40.3315 16.4062 39.1562 15.231 39.1562 13.7812C39.1562 12.3315 40.3315 11.1562 41.7812 11.1562C43.231 11.1562 44.4062 12.3315 44.4062 13.7812Z" stroke="#56AE47" stroke-miterlimit="10" stroke-linecap="round" stroke-linejoin="round"/>
<path d="M41.7812 11.1562V1.09397" stroke="#56AE47" stroke-miterlimit="10" stroke-linecap="round" stroke-linejoin="round"/>
<path d="M54.9062 13.7812C54.9062 15.231 53.731 16.4062 52.2812 16.4062C50.8315 16.4062 49.6562 15.231 49.6562 13.7812C49.6562 12.3315 50.8315 11.1562 52.2812 11.1562C53.731 11.1562 54.9062 12.3315 54.9062 13.7812Z" stroke="#56AE47" stroke-miterlimit="10" stroke-linecap="round" stroke-linejoin="round"/>
<path d="M52.2812 11.1562V1.09397" stroke="#56AE47" stroke-miterlimit="10" stroke-linecap="round" stroke-linejoin="round"/>
</g>
<defs>
<clipPath id="clip0_357_44106">
<rect width="56" height="56" fill="white"/>
</clipPath>
</defs>
</svg>
